<svg width="36" height="16" viewBox="0 0 36 16" fill="none" xmlns="http://www.w3.org/2000/svg">
<g clip-path="url(#clip0_1_97)">
<path fill-rule="evenodd" clip-rule="evenodd" d="M25.0409 2.46755H35.0167L28.0867 11.4025H33.0408L32.636 13.9182H22.7566L29.5035 4.98323H25.0409V2.46755Z" fill="black"/>
<path fill-rule="evenodd" clip-rule="evenodd" d="M17.5035 1.19528H28.3564L20.5782 11.1518H24.8481L22.7566 13.9182H14.7372L22.1975 3.96149L16.8384 3.95198L17.5035 1.19528Z" fill="black"/>
<path fill-rule="evenodd" clip-rule="evenodd" d="M16.2215 11.3928H13.5228L15.3638 -1.43051e-05H18.0817L16.2215 11.3928Z" fill="black"/>
<path fill-rule="evenodd" clip-rule="evenodd" d="M14.4192 12.5109C15.3735 12.5109 16.1541 13.2915 16.1541 14.2555C16.1541 15.2194 15.3735 16 14.4192 16C13.4553 16 12.6745 15.2194 12.6745 14.2555C12.6745 13.2915 13.4553 12.5109 14.4192 12.5109Z" fill="black"/>
<path fill-rule="evenodd" clip-rule="evenodd" d="M0 1.83151L1.49396 13.9182H3.78792L7.2288 7.06521L7.73969 13.9182H9.9952L15.9903 1.83151H12.6265L9.73483 8.33742L9.27233 1.83151H6.63126L3.56623 8.33742L3.06506 1.83151H0Z" fill="black"/>
</g>
<defs>
<clipPath id="clip0_1_97">
<rect width="35.0167" height="16" fill="white"/>
</clipPath>
</defs>
</svg>
