<svg width="141" height="15" viewBox="0 0 141 15" fill="none" xmlns="http://www.w3.org/2000/svg">
<path d="M77.8654 6.73746C77.8428 6.70583 77.2983 5.95743 76.3352 5.76042C75.4621 5.58187 73.4711 5.57176 73.3869 5.57143C73.2499 5.57095 73.1236 5.56084 73.0638 5.55313C73.006 5.50608 72.8888 5.39112 72.8115 5.29574L68.9048 0.475577C68.8204 0.37137 68.6484 0.174999 68.5391 0.099854C68.3519 -0.0292404 67.8722 0.00223038 67.8182 0.00624452L67.712 0.0141122C67.5671 0.0248701 67.3054 0.0537718 67.1807 0.126829C67.1067 0.170021 66.882 0.301684 67.0894 0.940734C67.0894 0.940734 68.5783 5.52792 68.5842 5.54815C68.5621 5.54944 66.4425 5.55024 66.4425 5.55024C66.3024 5.55024 66.1735 5.54045 66.1137 5.53306C66.0549 5.4881 65.9324 5.37426 65.8523 5.28017L64.4745 3.66103C64.4647 3.64963 64.2353 3.38116 64.0903 3.29301C63.8961 3.17516 63.5229 3.23537 63.5192 3.23601C63.4128 3.25592 63.263 3.3065 63.1682 3.37458C62.9971 3.49757 62.968 3.767 63.082 4.17532C63.3914 5.28338 63.8329 6.92596 63.8655 7.17741C63.8329 7.42885 63.3913 9.07143 63.082 10.1795C63.0579 10.266 62.9807 10.5607 63.0045 10.7137C63.0534 11.0282 63.5003 11.1153 63.5192 11.1188C63.6307 11.1397 63.7822 11.1463 63.8795 11.1347C64.1124 11.1066 64.416 10.7623 64.4745 10.6938L65.8523 9.07449C65.942 8.96932 66.0327 8.87827 66.0763 8.83862C66.1489 8.82352 66.3164 8.80458 66.4425 8.80458C66.4425 8.80458 68.5625 8.8049 68.5834 8.80554C68.5778 8.82705 67.0895 13.4141 67.0895 13.4141C67.0448 13.5518 66.9726 13.8043 66.9924 13.9465C67.0242 14.1752 67.2663 14.3076 67.7121 14.3407L67.8182 14.3486C67.8857 14.3535 67.9854 14.3585 68.0843 14.3585C68.1819 14.3585 68.2785 14.3537 68.3429 14.3399C68.5651 14.2921 68.8709 13.9213 68.905 13.8792L72.8117 9.05907C72.8979 8.95278 72.985 8.86045 73.0282 8.81871C73.1009 8.80313 73.2641 8.78386 73.3869 8.78338C73.4711 8.78306 75.4623 8.77294 76.3353 8.5944C77.2984 8.39722 77.8429 7.64899 77.8656 7.6172C78.0448 7.36639 78.0448 6.98826 77.8654 6.73746Z" fill="black"/>
<line y1="6.5" x2="50" y2="6.5" stroke="black" stroke-dasharray="2 0"/>
<line x1="91" y1="6.5" x2="141" y2="6.5" stroke="black" stroke-dasharray="2 0"/>
</svg>
