<svg width="395" height="114" viewBox="0 0 395 114" fill="none" xmlns="http://www.w3.org/2000/svg">
<path d="M88.0258 0.341449C74.7478 2.23146 66.8547 9.20998 64.1253 21.4224C63.5352 24.2574 63.3139 34.8706 63.5352 58.8592C63.7565 91.7891 63.7565 92.3706 65.4531 96.4414C70.248 108.072 83.8211 114.687 98.5008 112.434C105.804 111.271 109.713 109.526 114.287 105.31C120.262 99.7853 123.139 91.9345 123.139 80.8852V77.7808C123.139 76.7653 122.313 75.9421 121.293 75.9421H106.655C105.679 75.9421 104.872 76.6987 104.813 77.669L104.55 81.9756C104.033 91.2076 100.861 95.4964 93.8534 96.078C86.3292 96.7322 82.1982 91.9345 82.1982 82.4844C82.1982 77.9774 82.4933 76.669 83.8949 74.7063C84.8539 73.3978 91.1241 68.4547 97.9106 63.7296C118.344 49.4091 122.549 43.6664 122.696 30.1455C122.844 18.3693 119.082 10.155 111.041 4.84841C105.214 1.06838 95.9927 -0.821637 88.0258 0.341449ZM99.386 18.5147C105.066 21.9312 106.468 32.5444 101.894 38.0691C100.714 39.5229 95.6976 43.521 90.7552 47.0103L84.7532 51.3119C83.5321 52.1869 81.8294 51.3177 81.8294 49.8193V40.4679C81.8294 25.9293 82.4195 22.8762 85.8866 19.4597C88.0996 17.2789 88.7635 17.0608 92.6732 17.0608C95.6976 17.0608 97.6893 17.497 99.386 18.5147Z" fill="black"/>
<path d="M156.679 1.0456C146.533 2.29537 138.7 8.47072 135.417 17.7337L133.803 22.3665C133.736 22.5603 133.701 22.7641 133.701 22.9693V111.29C133.701 112.288 134.5 113.103 135.502 113.128L150.023 113.48C151.056 113.505 151.908 112.68 151.914 111.651L152.128 69.5626C152.352 30.3785 152.501 25.3059 153.62 22.8799C155.187 19.4246 158.171 17.5132 162.125 17.5132C166.004 17.5132 168.466 18.8365 170.331 21.7771C171.674 23.9826 171.748 26.4086 172.121 68.6069L172.479 111.304C172.488 112.296 173.285 113.103 174.281 113.127L188.881 113.479C189.918 113.504 190.772 112.674 190.772 111.641V68.3128C190.772 25.0854 190.697 22.9534 189.28 18.3954C185.251 5.6036 172.793 -1.08637 156.679 1.0456Z" fill="black"/>
<path d="M224.661 1.04558C214.515 2.29536 206.682 8.47071 203.4 17.7337L201.786 22.3665C201.718 22.5603 201.684 22.7641 201.684 22.9693V111.29C201.684 112.288 202.483 113.103 203.485 113.128L218.006 113.48C219.039 113.505 219.891 112.68 219.896 111.651L220.11 69.5626C220.334 30.3785 220.484 25.3059 221.603 22.8799C223.169 19.4246 226.153 17.5132 230.107 17.5132C233.987 17.5132 236.448 18.8365 238.314 21.7771C239.656 23.9826 239.731 26.4086 240.104 68.6069L240.462 111.304C240.47 112.296 241.267 113.103 242.263 113.127L256.864 113.479C257.901 113.504 258.755 112.674 258.755 111.641V68.3128C258.755 25.0853 258.68 22.9534 257.263 18.3954C253.234 5.60358 240.775 -1.08638 224.661 1.04558Z" fill="black"/>
<path d="M55.7663 110.411C56.1981 111.609 55.3069 112.871 54.0291 112.871H38.6729C37.8944 112.871 37.1996 112.384 36.9361 111.655L22.0736 70.4968C21.3732 68.5574 18.491 69.0581 18.491 71.1192V111.032C18.491 112.048 17.6646 112.871 16.6452 112.871H1.84579C0.826391 112.871 0 112.048 0 111.032V1.8387C0 0.823211 0.826395 -4.47712e-06 1.8458 0L16.6452 6.49974e-05C17.6646 6.94745e-05 18.491 0.823284 18.491 1.83877V31.334C18.491 33.3031 21.1781 33.8944 22.0108 32.1086L36.4857 1.0643C36.7883 0.415307 37.4414 0.000154314 38.1598 0.000154314H53.1936C54.5367 0.000154314 55.4302 1.38369 54.8732 2.60125L33.949 48.3468C33.7494 48.783 33.7288 49.2795 33.8914 49.7306L55.7663 110.411Z" fill="black"/>
<path d="M313.532 83.9732V67.2349C313.532 65.6837 311.655 64.7534 310.263 65.4492C307.951 66.6052 304.871 67.5585 301.074 67.5585C284.596 67.5585 271.936 55.3476 271.936 37.5317V2.96777C271.936 1.95228 272.762 1.12906 273.781 1.12906H288.979C289.999 1.12906 290.825 1.95228 290.825 2.96777V37.5317C290.825 43.9374 295.849 48.9419 302.279 48.9419C308.509 48.9419 313.532 49.6451 313.532 44.1289V2.96777C313.532 1.95228 314.359 1.12906 315.378 1.12906H330.576C331.595 1.12906 332.422 1.95228 332.422 2.96777V83.9732C332.422 101.389 318.757 114 302.078 114C285.6 114 271.936 101.389 271.936 83.9732V80.6072C271.936 79.5917 272.762 78.7685 273.781 78.7685H288.979C289.999 78.7685 290.825 79.5917 290.825 80.6072V83.9732C290.825 90.1787 295.849 95.3834 302.078 95.3834C308.308 95.3834 313.532 90.1787 313.532 83.9732Z" fill="black"/>
<path d="M394.304 54.9631C394.187 54.8173 391.373 51.3672 386.396 50.459C381.884 49.6358 371.594 49.5892 371.158 49.5877C370.45 49.5855 369.797 49.5389 369.488 49.5033C369.19 49.2865 368.584 48.7565 368.185 48.3168L347.994 26.0956C347.558 25.6152 346.669 24.71 346.104 24.3635C345.137 23.7684 342.657 23.9135 342.378 23.932L341.829 23.9683C341.081 24.0179 339.728 24.1511 339.083 24.4879C338.701 24.687 337.54 25.294 338.611 28.24C338.611 28.24 346.307 49.3871 346.337 49.4804C346.223 49.4863 335.268 49.49 335.268 49.49C334.544 49.49 333.878 49.4449 333.569 49.4108C333.265 49.2036 332.632 48.6787 332.218 48.245L325.097 40.7807C325.046 40.7281 323.861 39.4905 323.111 39.0841C322.108 38.5408 320.179 38.8184 320.16 38.8214C319.61 38.9131 318.836 39.1463 318.346 39.4602C317.462 40.0272 317.311 41.2692 317.9 43.1516C319.5 48.2598 321.781 55.8321 321.95 56.9913C321.781 58.1505 319.499 65.7228 317.9 70.831C317.776 71.23 317.377 72.5883 317.5 73.2937C317.752 74.7438 320.062 75.145 320.16 75.1613C320.736 75.2575 321.519 75.2879 322.022 75.2346C323.226 75.105 324.795 73.518 325.097 73.2019L332.218 65.7369C332.682 65.2521 333.15 64.8324 333.375 64.6495C333.751 64.58 334.617 64.4926 335.268 64.4926C335.268 64.4926 346.225 64.4941 346.333 64.4971C346.304 64.5963 338.612 85.7426 338.612 85.7426C338.381 86.3777 338.008 87.5413 338.11 88.1971C338.275 89.2512 339.526 89.8619 341.83 90.0144L342.378 90.0506C342.727 90.0736 343.242 90.0965 343.753 90.0965C344.258 90.0965 344.757 90.0743 345.09 90.0107C346.238 89.7901 347.819 88.0809 347.995 87.887L368.186 65.6659C368.631 65.1758 369.081 64.7502 369.305 64.5578C369.68 64.486 370.524 64.3971 371.158 64.3949C371.594 64.3934 381.884 64.3468 386.397 63.5237C391.374 62.6147 394.188 59.1653 394.305 59.0188C395.232 57.8625 395.232 56.1193 394.304 54.9631Z" fill="black"/>
</svg>
