<svg width="18" height="15" viewBox="0 0 18 15" fill="#FFFFFF" xmlns="http://www.w3.org/2000/svg">
<path d="M15.6873 2.07741L15.6877 2.07793C16.26 2.8278 16.5703 3.77435 16.5703 4.82654C16.5703 6.28604 15.694 7.98406 13.7802 9.87906C12.2285 11.4155 10.3847 12.6816 9.41894 13.3024C9.15508 13.4712 8.8484 13.5609 8.53516 13.5609C8.2219 13.5609 7.9152 13.4712 7.65134 13.3024C6.68503 12.6817 4.84192 11.4156 3.29008 9.87906C1.37623 7.9832 0.5 6.28598 0.5 4.82654C0.5 3.77435 0.81034 2.8278 1.38263 2.07793L1.38302 2.07741C1.92631 1.36361 2.69376 0.853146 3.56209 0.62802C4.43041 0.402894 5.34921 0.476175 6.17087 0.836092L6.17086 0.836104L6.17429 0.837574C6.91139 1.15392 7.58212 1.69589 8.13464 2.43523L8.53467 2.97051L8.93532 2.4357C9.48791 1.69807 10.159 1.15562 10.8969 0.83718L10.8969 0.837187L10.8994 0.836092C11.7211 0.476175 12.6399 0.402894 13.5082 0.62802C14.3766 0.853146 15.144 1.36361 15.6873 2.07741Z" stroke="black"/>
</svg>
