<svg width="15" height="15" viewBox="0 0 15 15" fill="none" xmlns="http://www.w3.org/2000/svg">
<path d="M13.8766 2.58621H1.12339C0.50294 2.58621 0 3.08915 0 3.7096V11.2904C0 11.9109 0.50294 12.4138 1.12339 12.4138H13.8766C14.497 12.4138 15 11.9109 15 11.2904V3.7096C15 3.08915 14.4971 2.58621 13.8766 2.58621Z" fill="#41479B"/>
<path d="M14.9844 3.52389C14.8959 2.99188 14.4338 2.58618 13.8766 2.58618H13.5843L8.79311 5.72525V2.58621H6.20689V5.72528L1.41568 2.58621H1.12339C0.56625 2.58621 0.104092 2.99188 0.0155566 3.52392L4.11062 6.20692H0V8.79313H4.11062L0.0155566 11.4761C0.104092 12.0081 0.56625 12.4138 1.12339 12.4138H1.41568L6.20689 9.27472V12.4138H8.79311V9.27472L13.5843 12.4138H13.8766C14.4338 12.4138 14.8959 12.0081 14.9844 11.4761L10.8894 8.79308H15V6.20686H10.8894L14.9844 3.52389Z" fill="#F5F5F5"/>
<path d="M8.27587 2.58621H6.72413V6.72413H0V8.27587H6.72413V12.4138H8.27587V8.27587H15V6.72413H8.27587V2.58621Z" fill="#FF4B55"/>
<path d="M0.726356 12.3414L6.19266 8.79312H5.24262L0.270233 12.0208C0.391903 12.1628 0.54826 12.2741 0.726356 12.3414Z" fill="#FF4B55"/>
<path d="M10.1481 8.79312H9.19804L14.4925 12.2298C14.6406 12.1325 14.7642 12.0011 14.8524 11.8467L10.1481 8.79312Z" fill="#FF4B55"/>
<path d="M0.118622 3.20727L4.73962 6.20688H5.68966L0.453368 2.80786C0.312772 2.91251 0.197723 3.04933 0.118622 3.20727Z" fill="#FF4B55"/>
<path d="M9.74315 6.2069L14.7246 2.97325C14.6016 2.83172 14.444 2.7211 14.2647 2.65509L8.79311 6.2069H9.74315Z" fill="#FF4B55"/>
</svg>
